<svg xmlns="http://www.w3.org/2000/svg" viewBox="0 0 95.17 95.17"><defs><style>.cls-1{fill:#fff;}.cls-2{fill:#96c9e0;}</style></defs><title>design</title><g id="圖層_1" data-name="圖層 1"><path class="cls-1" d="M95.7,17.8,82.2,4.3a6.28,6.28,0,0,0-8.8,0L48.2,29.4,30.5,11.6A13.29,13.29,0,1,0,11.7,30.4L29.4,48.1,4.3,73.3a6.28,6.28,0,0,0,0,8.8L17.8,95.6h0a6.28,6.28,0,0,0,8.8,0L51.7,70.5,72,90.8a5.67,5.67,0,0,0,3.6,1.8l11.4,2a3.4,3.4,0,0,0,1,.1,6.34,6.34,0,0,0,4.7-2A7,7,0,0,0,94.5,87L92.6,75.7a6.86,6.86,0,0,0-1.8-3.6L70.6,51.7,95.7,26.6A6.28,6.28,0,0,0,95.7,17.8ZM33.5,44.2,22.2,32.8,32.9,22.1,44.2,33.4ZM13.5,21a7.48,7.48,0,0,1,2.2-5.4,8.1,8.1,0,0,1,5.4-2.2,7.48,7.48,0,0,1,5.4,2.2L28.9,18,18.1,28.8l-2.4-2.4A7.91,7.91,0,0,1,13.5,21ZM88.7,88.6a.66.66,0,0,1-.7.2L76.2,86.7,74.4,85,85.1,74.3l1.8,1.8a.76.76,0,0,1,.2.5l1.8,11.3A.66.66,0,0,1,88.7,88.6ZM81,70.3,70.3,81,55.8,66.5,66.5,55.8ZM91.6,22.6l-69,69a.48.48,0,0,1-.7,0L8.4,78.1a.48.48,0,0,1,0-.7l4.9-4.9,4.9,4.9a2.71,2.71,0,0,0,2,.8,2.85,2.85,0,0,0,2-4.9l-4.9-4.9,6.9-6.9,4.9,4.9a2.71,2.71,0,0,0,2,.8,2.85,2.85,0,0,0,2-4.9l-4.9-4.9,6.9-6.9L43,58a2.71,2.71,0,0,0,2,.8,2.85,2.85,0,0,0,2-4.9l-7.6-7.6,6.9-6.9,4.9,4.9a2.71,2.71,0,0,0,2,.8,2.85,2.85,0,0,0,2-4.9l-4.9-4.9,6.9-6.9,4.9,4.9a2.71,2.71,0,0,0,2,.8,2.85,2.85,0,0,0,2-4.9l-4.9-4.9,6.9-6.9L76,25a2.71,2.71,0,0,0,2,.8,2.85,2.85,0,0,0,2-4.9l-7.6-7.6,4.9-4.9H78L91.5,21.9A.43.43,0,0,1,91.6,22.6Z" transform="translate(-2.39 -2.35)"/><path class="cls-2" d="M35.13,50.52l4.29-4.25,7.08,7.14s2.91,2.18.4,4.75l-.09.08a3.08,3.08,0,0,1-4.31-.67Z" transform="translate(-2.39 -2.35)"/><path class="cls-2" d="M68.1,17.41l4.32-4.15,7.07,7.14s2.91,2.18.4,4.75l-.08.07a3.08,3.08,0,0,1-4.32-.66Z" transform="translate(-2.39 -2.35)"/><path class="cls-2" d="M46.3,39.4l4-4.1,4.42,4.4s2.91,2.18.39,4.75a.27.27,0,0,0-.08.07,3.07,3.07,0,0,1-4.31-.66Z" transform="translate(-2.39 -2.35)"/><path class="cls-2" d="M24.2,61.51l4-4.11,4.41,4.4s2.92,2.19.4,4.75l-.08.07A3.08,3.08,0,0,1,28.61,66Z" transform="translate(-2.39 -2.35)"/><path class="cls-2" d="M13.3,72.5l4-4.1,4.41,4.4s2.92,2.18.4,4.75a.27.27,0,0,0-.08.07A3.09,3.09,0,0,1,17.71,77Z" transform="translate(-2.39 -2.35)"/><path class="cls-2" d="M57.2,28.4l4-4.1,4.42,4.4s2.91,2.18.39,4.75l-.08.07a3.07,3.07,0,0,1-4.31-.66Z" transform="translate(-2.39 -2.35)"/><path class="cls-2" d="M22.25,97.52a6.38,6.38,0,0,1-4.53-1.87L4.27,82.19a6.4,6.4,0,0,1,0-9L73.18,4.22a6.42,6.42,0,0,1,9,0L95.69,17.68a6.4,6.4,0,0,1,0,9.05L26.78,95.65A6.38,6.38,0,0,1,22.25,97.52ZM77.71,8.37a.4.4,0,0,0-.27.11L8.53,77.4a.37.37,0,0,0,0,.53L22,91.39a.38.38,0,0,0,.54,0L91.43,22.47a.37.37,0,0,0,0-.53L78,8.48A.38.38,0,0,0,77.71,8.37Z" transform="translate(-2.39 -2.35)"/></g></svg>