<svg id="圖層_1" data-name="圖層 1" xmlns="http://www.w3.org/2000/svg" viewBox="0 0 123 109"><defs><style>.cls-1{fill:#fff;}.cls-2{fill:#9cc;}</style></defs><title>web_development</title><path class="cls-1" d="M104.51,118.5H7.28a4.78,4.78,0,0,1-4.78-4.78V30.48A4.79,4.79,0,0,1,7.28,25.7H20.71a2,2,0,0,1,0,4H7.28a.78.78,0,0,0-.78.78v83.24a.78.78,0,0,0,.78.78h97.23a.78.78,0,0,0,.78-.78V100.3a2,2,0,0,1,4,0v13.42A4.78,4.78,0,0,1,104.51,118.5Z" transform="translate(-2.5 -9.5)"/><path class="cls-1" d="M20.29,48.25H6.36a2,2,0,1,1,0-4H20.29a2,2,0,0,1,0,4Z" transform="translate(-2.5 -9.5)"/><path class="cls-1" d="M120.72,102.3H23.49a4.79,4.79,0,0,1-4.78-4.78V14.28A4.78,4.78,0,0,1,23.49,9.5h97.23a4.78,4.78,0,0,1,4.78,4.78V97.52A4.79,4.79,0,0,1,120.72,102.3ZM23.49,13.5a.78.78,0,0,0-.78.78V97.52a.78.78,0,0,0,.78.78h97.23a.78.78,0,0,0,.78-.78V14.28a.78.78,0,0,0-.78-.78Z" transform="translate(-2.5 -9.5)"/><path class="cls-1" d="M123.5,32.05H22.56a2,2,0,0,1,0-4H123.5a2,2,0,1,1,0,4Z" transform="translate(-2.5 -9.5)"/><path class="cls-1" d="M39.58,22.38H32.16a2,2,0,1,1,0-4h7.42a2,2,0,0,1,0,4Z" transform="translate(-2.5 -9.5)"/><path class="cls-1" d="M56.48,22.38H49.06a2,2,0,0,1,0-4h7.42a2,2,0,0,1,0,4Z" transform="translate(-2.5 -9.5)"/><path class="cls-2" d="M44.93,64.35,61,70.94l-1.18,3.48L40.27,66.16V62.55l19.56-8.27L61,57.76Z" transform="translate(-2.5 -9.5)"/><path class="cls-2" d="M66.63,86.21H62.32L77.67,42.5h4.21Z" transform="translate(-2.5 -9.5)"/><path class="cls-2" d="M83.2,57.76l1.18-3.48,19.56,8.27v3.61L84.38,74.42,83.2,71l16.07-6.6Z" transform="translate(-2.5 -9.5)"/></svg>