<svg id="Layer_1" data-name="Layer 1" xmlns="http://www.w3.org/2000/svg" viewBox="0 0 48 48"><defs><style>.cls-1{fill:#fff;}</style></defs><title>Instagram</title><path class="cls-1" d="M30.4,24a6.4,6.4,0,1,1-12.3-2.4H14.6v9.6a2.22,2.22,0,0,0,2.2,2.2H31.2a2.22,2.22,0,0,0,2.2-2.2V21.6H29.9A6.44,6.44,0,0,1,30.4,24Z"/><polygon class="cls-1" points="33 15.5 33 15 32.5 15 29 15 29 19 33 19 33 15.5"/><path class="cls-1" d="M24,28.1A4.12,4.12,0,0,0,28.1,24a4.07,4.07,0,0,0-.8-2.4,4.05,4.05,0,0,0-6.6,0,4.07,4.07,0,0,0-.8,2.4A4.12,4.12,0,0,0,24,28.1Z"/><path class="cls-1" d="M24,0A24,24,0,1,0,48,24,24,24,0,0,0,24,0ZM35.7,21.6v9.6a4.48,4.48,0,0,1-4.5,4.5H16.8a4.48,4.48,0,0,1-4.5-4.5V16.8a4.48,4.48,0,0,1,4.5-4.5H31.2a4.48,4.48,0,0,1,4.5,4.5Z"/></svg>