<svg id="Layer_1" data-name="Layer 1" xmlns="http://www.w3.org/2000/svg" viewBox="0 0 49.25 49.25"><defs><style>.cls-1{fill:#fff;}</style></defs><title>twitter</title><path class="cls-1" d="M28.35,5.16A24.62,24.62,0,1,0,53,29.78,24.63,24.63,0,0,0,28.35,5.16Zm12.4,19.66c0,.26,0,.53,0,.8,0,8.2-6.24,17.66-17.66,17.66a17.58,17.58,0,0,1-9.51-2.79,12.12,12.12,0,0,0,1.48.09,12.48,12.48,0,0,0,7.71-2.66A6.22,6.22,0,0,1,17,33.61a6.45,6.45,0,0,0,1.17.11,5.83,5.83,0,0,0,1.63-.22,6.2,6.2,0,0,1-5-6.08v-.08a6.31,6.31,0,0,0,2.81.78A6.21,6.21,0,0,1,14.87,23a6.12,6.12,0,0,1,.84-3.12A17.63,17.63,0,0,0,28.5,26.31a6,6,0,0,1-.16-1.41,6.2,6.2,0,0,1,10.73-4.25A12.19,12.19,0,0,0,43,19.15a6.17,6.17,0,0,1-2.73,3.43,12.18,12.18,0,0,0,3.57-1A12.49,12.49,0,0,1,40.75,24.82Z" transform="translate(-3.72 -5.16)"/></svg>